HIERARCHY
ROOT Hips
{
	OFFSET	0.00	0.00	0.00
	CHANNELS 6 Xposition Yposition Zposition Zrotation Xrotation Yrotation
	JOINT Spine
	{
		OFFSET	 0.00	0.01	 0.00
		CHANNELS 3 Zrotation Xrotation Yrotation
		JOINT Spine1
		{
			OFFSET	 0.00	 2.45913012437421	 0.00
			CHANNELS 3 Zrotation Xrotation Yrotation
            JOINT Neck
            {
                OFFSET	 0.00	 2.48462964506057	 0.00
                CHANNELS 3 Zrotation Xrotation Yrotation
                JOINT Head
                {
                    OFFSET	 0.00	 0.927524780924562	 0.00
                    CHANNELS 3 Zrotation Xrotation Yrotation
                    End Site 
                    {
                        OFFSET	 0.00	 1.14999962169752	 0.00
                    }
                }
            }
			JOINT LeftShoulder
			{
				OFFSET	 0.00	 2.48462964506057	 0.00
				CHANNELS 3 Zrotation Xrotation Yrotation
				JOINT LeftUpArm
				{
					OFFSET	 0.00	 1.24881979654096	 0.00
					CHANNELS 3 Zrotation Xrotation Yrotation
					JOINT LeftForeArm
					{
						OFFSET	 0.00	2.59758046908119	 0.00
						CHANNELS 3 Zrotation Xrotation Yrotation
						JOINT LeftHand
						{
							OFFSET	 0.00	2.45542024364365	 0.00
							CHANNELS 3 Zrotation Xrotation Yrotation
							JOINT LeftHandThumb 
							{
								OFFSET	 0.00	0.00	 0.00
								CHANNELS 3 Zrotation Xrotation Yrotation
								End Site
								{
									OFFSET	 0.00	0.00	1.00000003353624
								}
							}
							JOINT L_Wrist_End 
							{
								OFFSET	 0.00	0.99999967115358	 0.00
								CHANNELS 3 Zrotation Xrotation Yrotation
								End Site 
								{
									OFFSET	 0.00	 0.00	 0.00
								}
							}
						}
					}
				}
			}
			JOINT RightShoulder
			{
				OFFSET	 0.00	 2.48462964506057	 0.00
				CHANNELS 3 Zrotation Xrotation Yrotation
				JOINT RightUpArm
				{
					OFFSET	 0.00	 1.24881979654096	 0.00
					CHANNELS 3 Zrotation Xrotation Yrotation
					JOINT RightForeArm
					{
						OFFSET	 0.00	2.59758046908119	 0.00
						CHANNELS 3 Zrotation Xrotation Yrotation
						JOINT RightHand
						{
							OFFSET	 0.00	2.45542024364365	 0.00
							CHANNELS 3 Zrotation Xrotation Yrotation
							JOINT RightHandThumb 
							{
								OFFSET	 0.00	0.00	 0.00
								CHANNELS 3 Zrotation Xrotation Yrotation
								End Site
								{
									OFFSET	 0.00	0.00	1.00000003353624
								}
							}
							JOINT R_Wrist_End 
							{
								OFFSET	 0.00	0.99999967115358	 0.00
								CHANNELS 3 Zrotation Xrotation Yrotation
								End Site 
								{
									OFFSET	 0.00	 0.00	 0.00
								}
							}
						}
					}
				}
			}
		}
	}
	JOINT LeftUpLeg
	{
		OFFSET	 1.2719394002717	 0.00	 0.00
		CHANNELS 3 Zrotation Xrotation Yrotation
		JOINT LeftLowLeg
		{
			OFFSET	 0.00	-4.3429100912261	 0.00
			CHANNELS 3 Zrotation Xrotation Yrotation
			JOINT LeftFoot
			{
				OFFSET	 0.00	-4.48767017425826	 0.00
				CHANNELS 3 Zrotation Xrotation Yrotation
				JOINT LeftToeBase
                {
                    OFFSET	 0.00	0.00	 1.51507020887566
                    CHANNELS 3 Zrotation Xrotation Yrotation
                    End Site 
                    {
                        OFFSET	 0.00	0.00	 0.75000010571191
                    }
                }
			}
		}
	}
	JOINT RightUpLeg
	{
		OFFSET	 -1.2719393604653	 0.00	 0.00
		CHANNELS 3 Zrotation Xrotation Yrotation
		JOINT RightLowLeg
		{
			OFFSET	 0.00	-4.3429100912261	 0.00
			CHANNELS 3 Zrotation Xrotation Yrotation
			JOINT RightFoot
			{
				OFFSET	 0.00	-4.48767017425826	 0.00
				CHANNELS 3 Zrotation Xrotation Yrotation
				JOINT RightToeBase
                {
                    OFFSET	 0.00	0.00	 1.51507020887566
                    CHANNELS 3 Zrotation Xrotation Yrotation
                    End Site 
                    {
                        OFFSET	 0.00	0.00	 0.749999965609858
                    }
                }   
			}
		}
	}
}
MOTION 
Frames:	17 
Frame Time: 0.02 
 2.7674301147460936 11.546199951171875 9.82239990234375 -133.023 85.0818 136.168 2.66679 -6.16687 -2.33327 0.240355 5.752 -2.61544 -7.38555 28.2071 4.49718 19.9719 -51.5248 12.3852 -91.22539 -15.5181 -3.21494 -6.4317 1.18389 -31.6213 0.0 21.8689 0.0 28.2519 -8.75294 27.2056 0.0 0.0 0.0 0.0 0.0 0.0 98.62421 -10.6663 1.17919 11.9481 -0.596875 35.6937 0.0 22.8236 0.0 -20.2026 -2.60721 -25.9411 0.0 0.0 0.0 0.0 0.0 0.0 4.5467 -2.56602 -1.64815 0.0 8.9496 0.0 -10.6225 5.2858496 -0.179308 0.0 -38.091103 0.0 3.39924 -0.927965 5.73244 0.0 7.91021 0.0 8.93735 8.88659 -7.50171 0.0 -27.9539 0.0 
  2.7675799560546874 11.546600341796875 9.822449951171874 -133.073 85.0741 136.216 2.67022 -6.15888 -2.32751 0.24713 5.7439 -2.61012 -7.37803 28.2368 4.47616 19.9322 -51.5004 12.3699 -91.23793 -15.4978 -3.20266 -6.44242 1.18644 -31.6645 0.0 21.8383 0.0 28.2162 -8.71553 27.0308 0.0 0.0 0.0 0.0 0.0 0.0 98.628174 -10.6582 1.18163 11.9686 -0.59451 35.7208 0.0 22.864 0.0 -20.126 -2.5439 -25.6955 0.0 0.0 0.0 0.0 0.0 0.0 4.5477 -2.57 -1.65394 0.0 8.93604 0.0 -10.6149 5.28827 -0.169461 0.0 -38.078598 0.0 3.39829 -0.92466 5.69722 0.0 7.88046 0.0 8.92908 8.89944 -7.47563 0.0 -27.93 0.0 
  2.7679098510742186 11.54719970703125 9.822429809570313 -133.204 85.0664 136.344 2.66843 -6.15446 -2.32229 0.282937 5.71795 -2.6039 -7.48955 28.2668 4.56666 19.9189 -51.4902 12.2727 -91.27878 -15.4514 -3.17456 -6.42847 1.15991 -31.6509 0.0 21.8172 0.0 28.2006 -8.72553 27.1492 0.0 0.0 0.0 0.0 0.0 0.0 98.58211 -10.7037 1.16468 12.0477 -0.463827 35.778 0.0 23.2806 0.0 -20.5457 -4.11567 -25.983 0.0 0.0 0.0 0.0 0.0 0.0 4.54203 -2.58425 -1.6683 0.0 8.93181 0.0 -10.6267 5.28541 -0.155617 0.0 -38.078598 0.0 3.39292 -0.939174 5.69476 0.0 7.87745 0.0 8.92042 8.90308 -7.4738 0.0 -27.941 0.0 
  2.7680398559570314 11.5472998046875 9.822440185546874 -133.343 85.0534 136.472 2.67109 -6.16134 -2.31088 0.268257 5.73248 -2.59308 -7.44889 28.2281 4.54996 19.9084 -51.4411 12.2787 -91.24023 -15.4954 -3.17923 -6.4808 1.21083 -31.5962 0.0 21.8654 0.0 28.2127 -8.80979 27.3002 0.0 0.0 0.0 0.0 0.0 0.0 98.6148 -10.6783 1.19231 12.0016 -0.543843 35.6305 0.0 22.9848 0.0 -20.2772 -2.9314 -25.7691 0.0 0.0 0.0 0.0 0.0 0.0 4.54269 -2.59249 -1.65514 0.0 8.91506 0.0 -10.6248 5.29432 -0.156533 0.0 -38.0931 0.0 3.39019 -0.954166 5.66884 0.0 7.86489 0.0 8.92851 8.91432 -7.43778 0.0 -27.9522 0.0 
  2.7685501098632814 11.5481005859375 9.82260009765625 -133.599 85.0322 136.712 2.68741 -6.18211 -2.29341 0.245739 5.75646 -2.57856 -7.45788 28.2217 4.5765 19.924 -51.4196 12.2792 -91.27064 -15.4767 -3.12409 -6.43775 1.20655 -31.5958 0.0 21.8459 0.0 28.2162 -8.75193 27.3483 0.0 0.0 0.0 0.0 0.0 0.0 98.63205 -10.6525 1.17403 12.0026 -0.533157 35.6222 0.0 22.8749 0.0 -20.147 -2.59468 -25.6588 0.0 0.0 0.0 0.0 0.0 0.0 4.5394 -2.61654 -1.63744 0.0 8.90071 0.0 -10.6211 5.3059797 -0.157172 0.0 -38.078 0.0 3.38538 -0.993258 5.68422 0.0 7.86695 0.0 8.93168 8.9237995 -7.43989 0.0 -27.9508 0.0 
  2.7688299560546876 11.548299560546875 9.822589721679687 -133.598 85.0276 136.71 2.69248 -6.17846 -2.29246 0.252146 5.75595 -2.57839 -7.47117 28.2236 4.59246 19.9168 -51.4138 12.278 -91.2624 -15.4903 -3.1957 -6.47434 1.2123 -31.561 0.0 21.8618 0.0 28.2388 -8.75883 27.4062 0.0 0.0 0.0 0.0 0.0 0.0 98.62601 -10.6493 1.18059 12.0047 -0.509014 35.5974 0.0 22.8537 0.0 -20.1628 -2.60728 -25.5848 0.0 0.0 0.0 0.0 0.0 0.0 4.54132 -2.62059 -1.62875 0.0 8.9004 0.0 -10.6156 5.30418 -0.163939 0.0 -38.0834 0.0 3.3869 -0.996268 5.70444 0.0 7.86565 0.0 8.94112 8.92439 -7.4513 0.0 -27.95 0.0 
  2.769289855957031 11.549000244140625 9.822680053710938 -133.671 85.0224 136.78 2.70123 -6.16473 -2.27266 0.24842 5.73277 -2.55992 -7.43716 28.2768 4.53988 19.8954 -51.4152 12.298 -91.28895 -15.484 -3.19243 -6.48994 1.26051 -31.6371 0.0 21.8239 0.0 28.3774 -8.60085 27.3112 0.0 0.0 0.0 0.0 0.0 0.0 98.66271 -10.639 1.13725 11.9724 -0.475606 35.7182 0.0 22.7874 0.0 -20.0685 -2.50182 -25.6435 0.0 0.0 0.0 0.0 0.0 0.0 4.5356 -2.63905 -1.64741 0.0 8.91458 0.0 -10.6152 5.30037 -0.141063 0.0 -38.0836 0.0 3.38394 -1.00068 5.72504 0.0 7.85211 0.0 8.94715 8.92436 -7.46994 0.0 -27.9292 0.0 
  2.7697601318359375 11.5493994140625 9.822630004882813 -133.695 85.0246 136.814 2.69941 -6.15552 -2.26506 0.262717 5.74131 -2.5518 -7.43969 28.2729 4.54082 19.8726 -51.4104 12.2991 -91.30631 -15.4857 -3.2074 -6.53838 1.29107 -31.6791 0.0 21.8401 0.0 28.4243 -8.55549 27.1702 0.0 0.0 0.0 0.0 0.0 0.0 98.66637 -10.6361 1.1227 11.9676 -0.460306 35.7071 0.0 22.8012 0.0 -20.072 -2.54703 -25.6021 0.0 0.0 0.0 0.0 0.0 0.0 4.52897 -2.64856 -1.64578 0.0 8.92381 0.0 -10.6144 5.30083 -0.149448 0.0 -38.0849 0.0 3.37722 -1.00072 5.71262 0.0 7.85094 0.0 8.95182 8.92182 -7.46449 0.0 -27.9345 0.0 
  2.770570068359375 11.5497998046875 9.822570190429687 -133.651 85.0293 136.789 2.71893 -6.16214 -2.25822 0.257 5.77895 -2.54846 -7.455 28.2684 4.55681 19.8482 -51.3929 12.2847 -91.35386 -15.4334 -3.14393 -6.52332 1.26931 -31.6808 0.0 21.8371 0.0 28.403 -8.57114 27.17 0.0 0.0 0.0 0.0 0.0 0.0 98.6772 -10.6458 1.10347 11.9598 -0.393303 35.7555 0.0 22.9096 0.0 -20.0622 -2.91907 -25.7714 0.0 0.0 0.0 0.0 0.0 0.0 4.52397 -2.64404 -1.63719 0.0 8.91224 0.0 -10.609 5.3134403 -0.168133 0.0 -38.0891 0.0 3.37097 -0.995959 5.67008 0.0 7.84762 0.0 8.97074 8.91666 -7.44468 0.0 -27.9248 0.0 
  2.7708499145507814 11.55010009765625 9.822570190429687 -133.63 85.0305 136.774 2.72949 -6.16762 -2.25916 0.245406 5.80474 -2.55149 -7.44377 28.2616 4.54953 19.8404 -51.391 12.2992 -91.37223 -15.4187 -3.13349 -6.50293 1.24595 -31.5791 0.0 21.84 0.0 28.4443 -8.60334 27.1402 0.0 0.0 0.0 0.0 0.0 0.0 98.68341 -10.6586 1.12155 11.9622 -0.346615 35.6793 0.0 22.9024 0.0 -20.1643 -2.97464 -25.672 0.0 0.0 0.0 0.0 0.0 0.0 4.52337 -2.64043 -1.63269 0.0 8.9014 0.0 -10.6048 5.31987 -0.175384 0.0 -38.0966 0.0 3.36975 -0.999086 5.6611 0.0 7.85877 0.0 8.94697 8.922501 -7.44024 0.0 -27.938099 0.0 
  2.77114990234375 11.55030029296875 9.82239990234375 -133.572 85.0336 136.743 2.75004 -6.17298 -2.25917 0.209613 5.83167 -2.55565 -7.46352 28.259 4.59081 19.9462 -51.4055 12.2912 -91.34879 -15.3754 -3.09972 -6.51542 1.21552 -31.4896 0.0 21.7921 0.0 28.4338 -8.64584 26.985 0.0 0.0 0.0 0.0 0.0 0.0 98.71937 -10.6385 1.11162 11.9361 -0.337876 35.7629 0.0 22.7511 0.0 -20.0301 -2.36748 -25.6857 0.0 0.0 0.0 0.0 0.0 0.0 4.5287 -2.63255 -1.52719 0.0 8.87938 0.0 -10.5913 5.34503 -0.280602 0.0 -38.124 0.0 3.37092 -1.00309 5.6592 0.0 7.87912 0.0 8.98667 8.89603 -7.45492 0.0 -27.919899 0.0 
  2.7710101318359377 11.5506005859375 9.822360229492187 -133.575 85.0371 136.768 2.74084 -6.16856 -2.26684 0.229918 5.84071 -2.56158 -7.47046 28.282 4.58735 19.9414 -51.4238 12.3006 -91.36917 -15.3694 -3.0956 -6.53195 1.23029 -31.4822 0.0 21.7583 0.0 28.4584 -8.61244 27.1334 0.0 0.0 0.0 0.0 0.0 0.0 98.719 -10.6221 1.07726 11.9415 -0.312132 35.8275 0.0 22.8575 0.0 -20.1699 -2.73222 -25.6867 0.0 0.0 0.0 0.0 0.0 0.0 4.52861 -2.63578 -1.48414 0.0 8.87448 0.0 -10.5762 5.3599396 -0.327842 0.0 -38.1287 0.0 3.37241 -1.01376 5.67946 0.0 7.90789 0.0 9.00176 8.86928 -7.48781 0.0 -27.8995 0.0 
  2.7709201049804686 11.551199951171874 9.822379760742187 -133.634 85.0342 136.848 2.72845 -6.16053 -2.26828 0.24925 5.8423 -2.56067 -7.42122 28.2832 4.52636 19.8794 -51.4159 12.328 -91.38896 -15.3845 -3.10304 -6.55236 1.27831 -31.5166 0.0 21.7636 0.0 28.4847 -8.62356 27.1025 0.0 0.0 0.0 0.0 0.0 0.0 98.72545 -10.6306 1.0858 11.9147 -0.310263 35.7777 0.0 22.8281 0.0 -20.1555 -2.65219 -25.6376 0.0 0.0 0.0 0.0 0.0 0.0 4.52642 -2.65494 -1.49478 0.0 8.88424 0.0 -10.5691 5.3656397 -0.334888 0.0 -38.1349 0.0 3.37222 -1.02311 5.69366 0.0 7.91366 0.0 8.99655 8.86059 -7.51783 0.0 -27.8983 0.0 
  2.770530090332031 11.551600341796876 9.822239990234374 -133.686 85.0336 136.938 2.71555 -6.16585 -2.27831 0.249661 5.86642 -2.56867 -7.40413 28.2683 4.52335 19.897 -51.3857 12.3164 -91.38148 -15.3884 -3.12147 -6.59523 1.28278 -31.5563 0.0 21.8308 0.0 28.4336 -8.61118 27.2878 0.0 0.0 0.0 0.0 0.0 0.0 98.76204 -10.629 1.06838 11.8565 -0.307001 35.7443 0.0 22.7353 0.0 -20.0694 -2.34605 -25.5831 0.0 0.0 0.0 0.0 0.0 0.0 4.5246 -2.68496 -1.51668 0.0 8.91436 0.0 -10.5619 5.3615503 -0.348634 0.0 -38.1233 0.0 3.37174 -1.03727 5.6629 0.0 7.93777 0.0 9.0042 8.84248 -7.51561 0.0 -27.8987 0.0 
  2.7699899291992187 11.55219970703125 9.822160034179687 -133.67 85.0288 136.955 2.71338 -6.1591 -2.27842 0.241912 5.87341 -2.56859 -7.36454 28.2858 4.49105 19.9164 -51.3563 12.3198 -91.4062 -15.3456 -3.12176 -6.55959 1.23087 -31.4629 0.0 21.9326 0.0 28.3782 -8.6776 27.2981 0.0 0.0 0.0 0.0 0.0 0.0 98.78286 -10.6177 1.07846 11.8512 -0.334979 35.7446 0.0 22.7621 0.0 -20.0886 -2.36314 -25.6103 0.0 0.0 0.0 0.0 0.0 0.0 4.52812 -2.71092 -1.59365 0.0 8.93819 0.0 -10.5766 5.3504295 -0.318316 0.0 -38.132202 0.0 3.37733 -1.03913 5.62789 0.0 7.93771 0.0 9.00634 8.84198 -7.51166 0.0 -27.906399 0.0 
  2.769339904785156 11.5527001953125 9.8222998046875 -133.654 85.0275 136.966 2.70646 -6.14161 -2.27605 0.232529 5.86607 -2.56522 -7.33476 28.3149 4.4617 19.9469 -51.3507 12.3289 -91.38304 -15.28 -3.13261 -6.6178 1.12874 -31.4362 0.0 22.1297 0.0 28.4125 -8.74813 27.2426 0.0 0.0 0.0 0.0 0.0 0.0 98.78046 -10.6241 1.09051 11.8972 -0.346063 35.7743 0.0 22.7679 0.0 -20.0896 -2.25769 -25.6649 0.0 0.0 0.0 0.0 0.0 0.0 4.52811 -2.73578 -1.66655 0.0 8.97153 0.0 -10.5856 5.3364296 -0.275478 0.0 -38.1174 0.0 3.3832 -1.02422 5.62705 0.0 7.90556 0.0 8.9974 8.855101 -7.53958 0.0 -27.9137 0.0 
  2.768590087890625 11.552900390625 9.8222802734375 -133.639 85.0281 136.958 2.69681 -6.13133 -2.26371 0.226895 5.87973 -2.55131 -7.31022 28.311 4.4333 19.9572 -51.3499 12.3222 -91.38035 -15.2341 -3.11998 -6.65211 1.06018 -31.4816 0.0 22.3017 0.0 28.4319 -8.72725 27.3658 0.0 0.0 0.0 0.0 0.0 0.0 98.78779 -10.651 1.09386 11.9099 -0.32086 35.7461 0.0 22.7432 0.0 -20.1371 -2.28302 -25.6313 0.0 0.0 0.0 0.0 0.0 0.0 4.52991 -2.751 -1.69075 0.0 8.99766 0.0 -10.5843 5.32549 -0.255988 0.0 -38.151 0.0 3.38728 -1.00925 5.62009 0.0 7.87783 0.0 8.99464 8.860331 -7.54513 0.0 -27.9011 0.0 
